<mxfile host="app.diagrams.net" modified="2022-10-21T12:44:17.549Z" agent="5.0 (Macintosh)" etag="jM771c8PJeqHtsXqEn7R" version="20.4.2" type="github">
  <diagram id="2sO_4onhugDU0Kl1AgzK" name="Page-1">
    <mxGraphModel dx="946" dy="617" grid="1" gridSize="10" guides="1" tooltips="1" connect="1" arrows="1" fold="1" page="1" pageScale="1" pageWidth="850" pageHeight="1100" math="0" shadow="0">
      <root>
        <mxCell id="0" />
        <mxCell id="1" parent="0" />
        <mxCell id="2VTOW2IW8ZpL9YFtVFEM-1" value="Teacher" style="whiteSpace=wrap;html=1;aspect=fixed;fontStyle=1" vertex="1" parent="1">
          <mxGeometry x="130" y="130" width="80" height="80" as="geometry" />
        </mxCell>
        <mxCell id="2VTOW2IW8ZpL9YFtVFEM-2" value="Question" style="whiteSpace=wrap;html=1;aspect=fixed;fontStyle=1" vertex="1" parent="1">
          <mxGeometry x="510" y="150" width="80" height="80" as="geometry" />
        </mxCell>
        <mxCell id="2VTOW2IW8ZpL9YFtVFEM-12" value="" style="edgeStyle=entityRelationEdgeStyle;fontSize=12;html=1;endArrow=ERzeroToMany;startArrow=ERzeroToOne;rounded=0;exitX=0;exitY=0.5;exitDx=0;exitDy=0;entryX=1;entryY=0.5;entryDx=0;entryDy=0;" edge="1" parent="1" source="2VTOW2IW8ZpL9YFtVFEM-2" target="2VTOW2IW8ZpL9YFtVFEM-6">
          <mxGeometry width="100" height="100" relative="1" as="geometry">
            <mxPoint x="570" y="410" as="sourcePoint" />
            <mxPoint x="510" y="390" as="targetPoint" />
          </mxGeometry>
        </mxCell>
        <mxCell id="2VTOW2IW8ZpL9YFtVFEM-13" value="" style="edgeStyle=entityRelationEdgeStyle;fontSize=12;html=1;endArrow=ERzeroToMany;startArrow=ERzeroToOne;rounded=0;exitX=1;exitY=0.5;exitDx=0;exitDy=0;entryX=0;entryY=0.5;entryDx=0;entryDy=0;" edge="1" parent="1" source="2VTOW2IW8ZpL9YFtVFEM-1" target="2VTOW2IW8ZpL9YFtVFEM-6">
          <mxGeometry width="100" height="100" relative="1" as="geometry">
            <mxPoint x="140" y="240" as="sourcePoint" />
            <mxPoint x="240" y="360" as="targetPoint" />
          </mxGeometry>
        </mxCell>
        <mxCell id="2VTOW2IW8ZpL9YFtVFEM-15" value="" style="group" vertex="1" connectable="0" parent="1">
          <mxGeometry x="300" y="190" width="120" height="90" as="geometry" />
        </mxCell>
        <mxCell id="2VTOW2IW8ZpL9YFtVFEM-6" value="" style="rounded=0;whiteSpace=wrap;html=1;" vertex="1" parent="2VTOW2IW8ZpL9YFtVFEM-15">
          <mxGeometry width="120" height="90" as="geometry" />
        </mxCell>
        <mxCell id="2VTOW2IW8ZpL9YFtVFEM-14" value="&lt;div&gt;FK(Teacher)&lt;/div&gt;&lt;div&gt;FK(Question)&lt;br&gt;&lt;/div&gt;" style="text;html=1;align=left;verticalAlign=middle;resizable=0;points=[];autosize=1;strokeColor=none;fillColor=none;" vertex="1" parent="2VTOW2IW8ZpL9YFtVFEM-15">
          <mxGeometry x="15" y="28.636363636363637" width="90" height="40" as="geometry" />
        </mxCell>
        <mxCell id="2VTOW2IW8ZpL9YFtVFEM-16" value="Teacher_Question" style="text;whiteSpace=wrap;html=1;fontStyle=1" vertex="1" parent="2VTOW2IW8ZpL9YFtVFEM-15">
          <mxGeometry x="10" width="110" height="24.545454545454547" as="geometry" />
        </mxCell>
      </root>
    </mxGraphModel>
  </diagram>
</mxfile>
